<svg width="600" height="600" viewBox="0 0 600 600" fill="none" xmlns="http://www.w3.org/2000/svg">
<rect width="600" height="600" rx="100" fill="#12A822"/>
<mask id="mask0_1_11" style="mask-type:alpha" maskUnits="userSpaceOnUse" x="187" y="30" width="215" height="145">
<path d="M402 30H187V175H402V30Z" fill="#D9D9D9"/>
</mask>
<g mask="url(#mask0_1_11)">
<path d="M390.72 128.351C390.72 177.616 351.38 217.553 302.089 217.553C252.798 217.553 213.459 177.616 213.459 128.351C213.459 79.0861 252.798 39.1489 302.089 39.1489C351.38 39.1489 390.72 79.0861 390.72 128.351Z" fill="#FFA832"/>
<path d="M301.726 209.718C301.287 209.725 300.847 209.731 300.406 209.731C299.969 209.731 299.533 209.726 299.097 209.719C299.532 209.725 299.967 209.729 300.404 209.729C300.846 209.729 301.287 209.724 301.726 209.718ZM300.66 58.2118C302.522 58.2118 304.152 58.911 305.549 60.3094C306.947 61.706 307.646 63.3351 307.646 65.1971V70.6083C312.184 70.9493 316.473 72.4018 320.513 74.9667C324.555 77.5315 327.94 80.743 330.669 84.6005C331.77 86.1865 331.955 87.9316 331.221 89.8348C330.488 91.7362 329.121 93.0812 327.121 93.869C325.656 94.5238 324.103 94.5489 322.463 93.9452C320.824 93.3432 319.381 92.2806 318.135 90.7577C316.167 88.384 313.756 86.4853 310.903 85.0614C308.05 83.6391 304.721 82.9276 300.916 82.9276C294.553 82.9276 289.565 84.4362 285.951 87.453C282.337 90.4698 280.53 94.3926 280.53 99.2206C280.53 104.048 282.295 107.807 285.823 110.496C289.351 113.185 296.495 116.368 307.253 120.041C319.531 124.475 327.782 129.445 332.007 134.954C336.231 140.464 338.344 146.801 338.344 153.963C338.343 163.894 335.126 171.302 328.692 176.188C322.258 181.076 315.071 184.057 307.135 185.133V190.544C307.135 192.406 306.435 194.035 305.037 195.432C303.64 196.831 302.011 197.53 300.148 197.53C298.286 197.53 296.656 196.831 295.26 195.432C293.861 194.036 293.162 192.406 293.162 190.544V184.622C286.813 183.257 281.337 180.856 276.732 177.419C272.128 173.982 268.395 169.397 265.535 163.664C264.71 161.972 264.718 160.198 265.558 158.342C266.401 156.487 267.729 155.227 269.544 154.564C271.227 153.901 272.948 153.881 274.706 154.505C276.464 155.128 277.861 156.338 278.896 158.135C281.546 162.726 284.834 166.235 288.76 168.662C292.685 171.088 297.079 172.302 301.939 172.302C307.763 172.302 312.991 170.849 317.623 167.943C322.253 165.039 324.568 160.379 324.568 153.963C324.568 148.624 322.578 144.371 318.597 141.204C314.615 138.035 307.187 134.456 296.311 130.467C285.791 126.69 278.202 122.459 273.545 117.776C268.887 113.093 266.558 106.908 266.558 99.2206C266.558 92.6225 268.897 86.6237 273.575 81.2245C278.251 75.827 284.951 72.2881 293.674 70.6083V65.1971C293.674 63.3352 294.373 61.706 295.771 60.3094C297.168 58.9111 298.798 58.2118 300.66 58.2118ZM382.24 125.758C382.258 126.46 382.266 127.165 382.266 127.871C382.266 128.5 382.258 129.128 382.244 129.753C382.256 129.129 382.263 128.501 382.263 127.871C382.263 127.514 382.261 127.158 382.258 126.803L382.24 125.758ZM301.46 46.0165C301.109 46.0127 300.757 46.0116 300.404 46.0116C300.058 46.0116 299.713 46.0128 299.369 46.0165C299.714 46.0122 300.06 46.0106 300.406 46.0106C300.758 46.0106 301.109 46.0121 301.46 46.0165Z" fill="white"/>
<path d="M301.189 30C314.634 30 327.272 32.5509 339.102 37.6533C350.932 42.7558 361.223 49.6809 369.973 58.4277C378.724 67.1747 385.652 77.4609 390.758 89.2861C395.863 101.111 398.415 113.746 398.415 127.189C398.415 140.634 395.863 153.272 390.76 165.102C385.658 176.933 378.733 187.223 369.986 195.973C361.239 204.724 350.954 211.653 339.129 216.758C327.303 221.863 314.669 224.415 301.225 224.415C287.78 224.415 275.141 221.863 263.311 216.76C251.481 211.658 241.19 204.734 232.44 195.987C223.69 187.24 216.762 176.954 211.656 165.129C206.552 153.303 204 140.669 204 127.226C204 113.78 206.55 101.142 211.653 89.3115C216.755 77.4813 223.68 67.1908 232.427 58.4404C241.174 49.6901 251.461 42.7622 263.286 37.6562C275.111 32.552 287.745 30 301.189 30ZM383.065 127.207H383.066C383.066 104.355 375.136 84.9987 359.276 69.1387C343.416 53.2785 324.059 45.3486 301.207 45.3486L302.262 45.3535C301.912 45.3491 301.56 45.3477 301.209 45.3477C300.862 45.3477 300.517 45.3493 300.171 45.3535C300.516 45.3499 300.861 45.3486 301.207 45.3486C278.355 45.3487 258.998 53.2786 243.138 69.1387C227.278 84.9987 219.348 104.355 219.348 127.207C219.348 150.059 227.278 169.416 243.138 185.276C258.869 201.007 278.039 208.934 300.648 209.062C300.835 209.064 301.022 209.068 301.209 209.068C301.367 209.068 301.525 209.064 301.683 209.063C324.328 208.954 343.526 201.026 359.276 185.276C374.699 169.853 382.621 151.125 383.046 129.091C383.06 128.465 383.069 127.837 383.069 127.208C383.069 126.502 383.06 125.797 383.043 125.095L383.06 126.14C383.064 126.495 383.065 126.85 383.065 127.207ZM297.44 195.875C297.599 195.974 297.762 196.065 297.926 196.149C297.862 196.116 297.796 196.083 297.732 196.048L297.44 195.875ZM276.681 176.097C276.882 176.257 277.086 176.414 277.291 176.569C277.229 176.522 277.166 176.477 277.105 176.429L276.681 176.097ZM301.836 171.625C302.136 171.634 302.438 171.638 302.742 171.638L303.286 171.634C303.105 171.637 302.924 171.639 302.742 171.639L301.836 171.625ZM289.562 167.999C289.93 168.226 290.302 168.443 290.678 168.649C290.427 168.512 290.178 168.369 289.931 168.222L289.562 167.999ZM266.361 157.679C266.308 157.795 266.259 157.911 266.213 158.026C266.121 158.257 266.042 158.486 265.976 158.715C266.075 158.372 266.203 158.027 266.361 157.679ZM334.963 137.477C335.07 137.659 335.176 137.842 335.279 138.025L335.582 138.578C335.384 138.208 335.177 137.841 334.963 137.477ZM322.668 125.967C322.933 126.121 323.195 126.275 323.453 126.431L324.214 126.898C323.715 126.586 323.199 126.275 322.668 125.967ZM296.011 114.839C299.334 116.258 303.349 117.77 308.055 119.377C306.71 118.918 305.422 118.467 304.19 118.023C303.574 117.802 302.973 117.581 302.385 117.363C300.035 116.491 297.91 115.65 296.011 114.839ZM283.401 106.356C283.47 106.466 283.541 106.574 283.613 106.681C283.541 106.574 283.469 106.466 283.4 106.356H283.401ZM281.38 97.2227C281.349 97.6593 281.334 98.104 281.334 98.5566C281.334 98.8583 281.34 99.1559 281.354 99.4492L281.353 99.4502C281.346 99.3035 281.341 99.1557 281.338 99.0068C281.334 98.8581 281.333 98.7084 281.333 98.5576C281.333 98.1051 281.349 97.6593 281.38 97.2227ZM281.862 94.2959C281.685 94.9619 281.554 95.6501 281.465 96.3603L281.418 96.7891C281.502 95.9262 281.65 95.0951 281.862 94.2959ZM329.907 92.084C329.783 92.1815 329.655 92.274 329.523 92.3643C329.553 92.3438 329.583 92.3245 329.613 92.3037L329.907 92.084ZM283.451 90.5654C283.31 90.7966 283.176 91.0313 283.048 91.2695H283.047C283.175 91.0313 283.309 90.7965 283.45 90.5654H283.451ZM269.835 87.4385C269.748 87.6225 269.663 87.807 269.581 87.9922C269.663 87.8067 269.748 87.6218 269.835 87.4375V87.4385ZM270.677 85.7988C270.577 85.9793 270.478 86.1602 270.382 86.3418C270.479 86.1599 270.577 85.9795 270.677 85.7988ZM274.378 80.5615C273.793 81.2364 273.245 81.9206 272.733 82.6143L272.356 83.1357C272.973 82.2627 273.647 81.4053 274.378 80.5615ZM281.079 74.9033C280.683 75.1464 280.296 75.3966 279.917 75.6543C279.727 75.783 279.54 75.9136 279.354 76.0459C278.722 76.4965 278.114 76.9692 277.528 77.4619C278.631 76.5349 279.814 75.6814 281.079 74.9033ZM308.375 63.5107C308.391 63.6218 308.406 63.7337 308.417 63.8467L308.441 64.1875C308.43 63.9582 308.407 63.7327 308.375 63.5107ZM302.816 57.6797C304.125 57.9419 305.304 58.5968 306.351 59.6455C306.526 59.8202 306.69 59.9987 306.843 60.1807L307.064 60.456C306.851 60.1779 306.613 59.9073 306.351 59.6455C306.089 59.3833 305.819 59.1466 305.541 58.9336C305.262 58.7205 304.976 58.5321 304.681 58.3682C304.485 58.259 304.285 58.1606 304.082 58.0732C303.98 58.0295 303.877 57.9885 303.773 57.9502C303.462 57.8355 303.143 57.7452 302.816 57.6797ZM296.574 59.6465C296.661 59.5592 296.749 59.4735 296.838 59.3916L296.574 59.6465ZM301.809 57.5566C301.695 57.5512 301.579 57.5488 301.463 57.5488L301.809 57.5566Z" fill="#FFD43F"/>
</g>
<path d="M161.355 559.027C154.196 551.709 150.617 542.881 150.617 532.543C150.617 522.206 154.237 513.42 161.477 506.186C168.721 498.952 177.52 495.336 187.875 495.336C198.226 495.336 207.023 498.993 214.267 506.308C221.507 513.627 225.128 522.455 225.128 532.793C225.128 543.13 221.465 551.916 214.14 559.149C206.818 566.382 197.98 570 187.625 570C177.271 570 168.514 566.342 161.355 559.027ZM386.63 559.027C379.472 551.709 375.892 542.881 375.892 532.543C375.892 522.206 379.514 513.42 386.758 506.186C393.998 498.952 402.796 495.336 413.15 495.336C423.505 495.336 432.303 498.993 439.543 506.308C446.783 513.627 450.403 522.455 450.403 532.793C450.403 543.13 446.742 551.916 439.421 559.149C432.095 566.382 423.255 570 412.901 570C402.55 570 393.793 566.342 386.63 559.027ZM153.743 194.434L218.556 329.475H380.314C381.658 329.475 382.888 329.14 384.004 328.471C385.123 327.801 385.98 326.872 386.572 325.684L455.412 200.687C456.303 199.05 456.376 197.599 455.632 196.333C454.889 195.068 453.622 194.434 451.832 194.434H153.743ZM140.338 168.09H301.53H462.722C472.216 168.09 479.398 172.19 484.268 180.391C489.133 188.592 489.242 196.905 484.593 205.332L413.162 334.63C409.292 341.05 404.33 346.189 398.275 350.043C392.216 353.898 385.679 355.826 378.664 355.826H206.801L174.708 415.082C173.666 416.87 173.666 418.807 174.708 420.893C175.75 422.975 177.389 424.016 179.624 424.016H437.218C440.96 424.016 444.094 425.287 446.62 427.831C449.142 430.369 450.403 433.524 450.403 437.293C450.403 441.067 449.142 444.188 446.62 446.657C444.094 449.126 440.96 450.362 437.218 450.362H183.511C168.88 450.362 158.318 445.316 151.825 435.227C145.329 425.132 145.387 413.983 152 401.776L189.415 333.718L101.54 148.345H71.1903C67.4443 148.345 64.3104 147.076 61.7886 144.537C59.2629 141.994 58 138.838 58 135.069C58 131.298 59.2629 128.179 61.7886 125.71C64.3104 123.237 67.4443 122 71.1903 122H108.019C111.524 122 114.594 122.824 117.228 124.473C119.859 126.122 121.869 128.438 123.26 131.422L140.338 168.09Z" fill="white"/>
</svg>
