<svg width="620" height="620" viewBox="0 0 620 620" fill="none" xmlns="http://www.w3.org/2000/svg">
<rect width="620" height="620" rx="310" fill="#12A822"/>
<mask id="mask0_1_11" style="mask-type:alpha" maskUnits="userSpaceOnUse" x="202" y="33" width="215" height="145">
<path d="M417 33H202V178H417V33Z" fill="white"/>
</mask>
<g mask="url(#mask0_1_11)">
<path d="M405.72 131.351C405.72 180.616 366.38 220.553 317.089 220.553C267.798 220.553 228.459 180.616 228.459 131.351C228.459 82.0861 267.798 42.1489 317.089 42.1489C366.38 42.1489 405.72 82.0861 405.72 131.351Z" fill="#FFA832"/>
<path d="M316.726 212.718C316.287 212.725 315.847 212.731 315.406 212.731C314.969 212.731 314.533 212.726 314.097 212.719C314.532 212.725 314.967 212.729 315.404 212.729C315.846 212.729 316.287 212.724 316.726 212.718ZM315.66 61.2118C317.522 61.2118 319.152 61.911 320.549 63.3094C321.947 64.706 322.646 66.3351 322.646 68.1971V73.6083C327.184 73.9493 331.473 75.4018 335.513 77.9667C339.555 80.5315 342.94 83.743 345.669 87.6005C346.77 89.1865 346.955 90.9316 346.221 92.8348C345.488 94.7362 344.121 96.0812 342.121 96.869C340.656 97.5238 339.103 97.5489 337.463 96.9452C335.824 96.3432 334.381 95.2806 333.135 93.7577C331.167 91.384 328.756 89.4853 325.903 88.0614C323.05 86.6391 319.721 85.9276 315.916 85.9276C309.553 85.9276 304.565 87.4362 300.951 90.453C297.337 93.4698 295.53 97.3926 295.53 102.221C295.53 107.048 297.295 110.807 300.823 113.496C304.351 116.185 311.495 119.368 322.253 123.041C334.531 127.475 342.782 132.445 347.007 137.954C351.231 143.464 353.344 149.801 353.344 156.963C353.343 166.894 350.126 174.302 343.692 179.188C337.258 184.076 330.071 187.057 322.135 188.133V193.544C322.135 195.406 321.435 197.035 320.037 198.432C318.64 199.831 317.011 200.53 315.148 200.53C313.286 200.53 311.656 199.831 310.26 198.432C308.861 197.036 308.162 195.406 308.162 193.544V187.622C301.813 186.257 296.337 183.856 291.732 180.419C287.128 176.982 283.395 172.397 280.535 166.664C279.71 164.972 279.718 163.198 280.558 161.342C281.401 159.487 282.729 158.227 284.544 157.564C286.227 156.901 287.948 156.881 289.706 157.505C291.464 158.128 292.861 159.338 293.896 161.135C296.546 165.726 299.834 169.235 303.76 171.662C307.685 174.088 312.079 175.302 316.939 175.302C322.763 175.302 327.991 173.849 332.623 170.943C337.253 168.039 339.568 163.379 339.568 156.963C339.568 151.624 337.578 147.371 333.597 144.204C329.615 141.035 322.187 137.456 311.311 133.467C300.791 129.69 293.202 125.459 288.545 120.776C283.887 116.093 281.558 109.908 281.558 102.221C281.558 95.6225 283.897 89.6237 288.575 84.2245C293.251 78.827 299.951 75.2881 308.674 73.6083V68.1971C308.674 66.3352 309.373 64.706 310.771 63.3094C312.168 61.9111 313.798 61.2118 315.66 61.2118ZM397.24 128.758C397.258 129.46 397.266 130.165 397.266 130.871C397.266 131.5 397.258 132.128 397.244 132.753C397.256 132.129 397.263 131.501 397.263 130.871C397.263 130.514 397.261 130.158 397.258 129.803L397.24 128.758ZM316.46 49.0165C316.109 49.0127 315.757 49.0116 315.404 49.0116C315.058 49.0116 314.713 49.0128 314.369 49.0165C314.714 49.0122 315.06 49.0106 315.406 49.0106C315.758 49.0106 316.109 49.0121 316.46 49.0165Z" fill="white"/>
<path d="M316.189 33C329.634 33 342.272 35.5509 354.102 40.6533C365.932 45.7558 376.223 52.6809 384.973 61.4277C393.724 70.1747 400.652 80.4609 405.758 92.2861C410.863 104.111 413.415 116.746 413.415 130.189C413.415 143.634 410.863 156.272 405.76 168.102C400.658 179.933 393.733 190.223 384.986 198.973C376.239 207.724 365.954 214.653 354.129 219.758C342.303 224.863 329.669 227.415 316.225 227.415C302.78 227.415 290.141 224.863 278.311 219.76C266.481 214.658 256.19 207.734 247.44 198.987C238.69 190.24 231.762 179.954 226.656 168.129C221.552 156.303 219 143.669 219 130.226C219 116.78 221.55 104.142 226.653 92.3115C231.755 80.4813 238.68 70.1908 247.427 61.4404C256.174 52.6901 266.461 45.7622 278.286 40.6562C290.111 35.552 302.745 33 316.189 33ZM398.065 130.207H398.066C398.066 107.355 390.136 87.9987 374.276 72.1387C358.416 56.2785 339.059 48.3486 316.207 48.3486L317.262 48.3535C316.912 48.3491 316.56 48.3477 316.209 48.3477C315.862 48.3477 315.517 48.3493 315.171 48.3535C315.516 48.3499 315.861 48.3486 316.207 48.3486C293.355 48.3487 273.998 56.2786 258.138 72.1387C242.278 87.9987 234.348 107.355 234.348 130.207C234.348 153.059 242.278 172.416 258.138 188.276C273.869 204.007 293.039 211.934 315.648 212.062C315.835 212.064 316.022 212.068 316.209 212.068C316.367 212.068 316.525 212.064 316.683 212.063C339.328 211.954 358.526 204.026 374.276 188.276C389.699 172.853 397.621 154.125 398.046 132.091C398.06 131.465 398.069 130.837 398.069 130.208C398.069 129.502 398.06 128.797 398.043 128.095L398.06 129.14C398.064 129.495 398.065 129.85 398.065 130.207ZM312.44 198.875C312.599 198.974 312.762 199.065 312.926 199.149C312.862 199.116 312.796 199.083 312.732 199.048L312.44 198.875ZM291.681 179.097C291.882 179.257 292.086 179.414 292.291 179.569C292.229 179.522 292.166 179.477 292.105 179.429L291.681 179.097ZM316.836 174.625C317.136 174.634 317.438 174.638 317.742 174.638L318.286 174.634C318.105 174.637 317.924 174.639 317.742 174.639L316.836 174.625ZM304.562 170.999C304.93 171.226 305.302 171.443 305.678 171.649C305.427 171.512 305.178 171.369 304.931 171.222L304.562 170.999ZM281.361 160.679C281.308 160.795 281.259 160.911 281.213 161.026C281.121 161.257 281.042 161.486 280.976 161.715C281.075 161.372 281.203 161.027 281.361 160.679ZM349.963 140.477C350.07 140.659 350.176 140.842 350.279 141.025L350.582 141.578C350.384 141.208 350.177 140.841 349.963 140.477ZM337.668 128.967C337.933 129.121 338.195 129.275 338.453 129.431L339.214 129.898C338.715 129.586 338.199 129.275 337.668 128.967ZM311.011 117.839C314.334 119.258 318.349 120.77 323.055 122.377C321.71 121.918 320.422 121.467 319.19 121.023C318.574 120.802 317.973 120.581 317.385 120.363C315.035 119.491 312.91 118.65 311.011 117.839ZM298.401 109.356C298.47 109.466 298.541 109.574 298.613 109.681C298.541 109.574 298.469 109.466 298.4 109.356H298.401ZM296.38 100.223C296.349 100.659 296.334 101.104 296.334 101.557C296.334 101.858 296.34 102.156 296.354 102.449L296.353 102.45C296.346 102.304 296.341 102.156 296.338 102.007C296.334 101.858 296.333 101.708 296.333 101.558C296.333 101.105 296.349 100.659 296.38 100.223ZM296.862 97.2959C296.685 97.9619 296.554 98.6501 296.465 99.3603L296.418 99.7891C296.502 98.9262 296.65 98.0951 296.862 97.2959ZM344.907 95.084C344.783 95.1815 344.655 95.274 344.523 95.3643C344.553 95.3438 344.583 95.3245 344.613 95.3037L344.907 95.084ZM298.451 93.5654C298.31 93.7966 298.176 94.0313 298.048 94.2695H298.047C298.175 94.0313 298.309 93.7965 298.45 93.5654H298.451ZM284.835 90.4385C284.748 90.6225 284.663 90.807 284.581 90.9922C284.663 90.8067 284.748 90.6218 284.835 90.4375V90.4385ZM285.677 88.7988C285.577 88.9793 285.478 89.1602 285.382 89.3418C285.479 89.1599 285.577 88.9795 285.677 88.7988ZM289.378 83.5615C288.793 84.2364 288.245 84.9206 287.733 85.6143L287.356 86.1357C287.973 85.2627 288.647 84.4053 289.378 83.5615ZM296.079 77.9033C295.683 78.1464 295.296 78.3966 294.917 78.6543C294.727 78.783 294.54 78.9136 294.354 79.0459C293.722 79.4965 293.114 79.9692 292.528 80.4619C293.631 79.5349 294.814 78.6814 296.079 77.9033ZM323.375 66.5107C323.391 66.6218 323.406 66.7337 323.417 66.8467L323.441 67.1875C323.43 66.9582 323.407 66.7327 323.375 66.5107ZM317.816 60.6797C319.125 60.9419 320.304 61.5968 321.351 62.6455C321.526 62.8202 321.69 62.9987 321.843 63.1807L322.064 63.456C321.851 63.1779 321.613 62.9073 321.351 62.6455C321.089 62.3833 320.819 62.1466 320.541 61.9336C320.262 61.7205 319.976 61.5321 319.681 61.3682C319.485 61.259 319.285 61.1606 319.082 61.0732C318.98 61.0295 318.877 60.9885 318.773 60.9502C318.462 60.8355 318.143 60.7452 317.816 60.6797ZM311.574 62.6465C311.661 62.5592 311.749 62.4735 311.838 62.3916L311.574 62.6465ZM316.809 60.5566C316.695 60.5512 316.579 60.5488 316.463 60.5488L316.809 60.5566Z" fill="#FFD43F"/>
</g>
<path d="M176.355 562.027C169.196 554.709 165.617 545.881 165.617 535.543C165.617 525.206 169.237 516.42 176.477 509.186C183.721 501.952 192.52 498.336 202.875 498.336C213.226 498.336 222.023 501.993 229.267 509.308C236.507 516.627 240.128 525.455 240.128 535.793C240.128 546.13 236.465 554.916 229.14 562.149C221.818 569.382 212.98 573 202.625 573C192.271 573 183.514 569.342 176.355 562.027ZM401.63 562.027C394.472 554.709 390.892 545.881 390.892 535.543C390.892 525.206 394.514 516.42 401.758 509.186C408.998 501.952 417.796 498.336 428.15 498.336C438.505 498.336 447.303 501.993 454.543 509.308C461.783 516.627 465.403 525.455 465.403 535.793C465.403 546.13 461.742 554.916 454.421 562.149C447.095 569.382 438.255 573 427.901 573C417.55 573 408.793 569.342 401.63 562.027ZM168.743 197.434L233.556 332.475H395.314C396.658 332.475 397.888 332.14 399.004 331.471C400.123 330.801 400.98 329.872 401.572 328.684L470.412 203.687C471.303 202.05 471.376 200.599 470.632 199.333C469.889 198.068 468.622 197.434 466.832 197.434H168.743ZM155.338 171.09H316.53H477.722C487.216 171.09 494.398 175.19 499.268 183.391C504.133 191.592 504.242 199.905 499.593 208.332L428.162 337.63C424.292 344.05 419.33 349.189 413.275 353.043C407.216 356.898 400.679 358.826 393.664 358.826H221.801L189.708 418.082C188.666 419.87 188.666 421.807 189.708 423.893C190.75 425.975 192.389 427.016 194.624 427.016H452.218C455.96 427.016 459.094 428.287 461.62 430.831C464.142 433.369 465.403 436.524 465.403 440.293C465.403 444.067 464.142 447.188 461.62 449.657C459.094 452.126 455.96 453.362 452.218 453.362H198.511C183.88 453.362 173.318 448.316 166.825 438.227C160.329 428.132 160.387 416.983 167 404.776L204.415 336.718L116.54 151.345H86.1903C82.4443 151.345 79.3104 150.076 76.7886 147.537C74.2629 144.994 73 141.838 73 138.069C73 134.298 74.2629 131.179 76.7886 128.71C79.3104 126.237 82.4443 125 86.1903 125H123.019C126.524 125 129.594 125.824 132.228 127.473C134.859 129.122 136.869 131.438 138.26 134.422L155.338 171.09Z" fill="white"/>
</svg>
