<svg width="430" height="542" viewBox="0 0 430 542" fill="none" xmlns="http://www.w3.org/2000/svg">
<mask id="mask0_10_36" style="mask-type:alpha" maskUnits="userSpaceOnUse" x="130" y="0" width="215" height="145">
<rect x="130" width="215" height="145" fill="#D9D9D9"/>
</mask>
<g mask="url(#mask0_10_36)">
<path d="M332.731 100.213C332.731 149.478 293.391 189.415 244.1 189.415C194.809 189.415 155.47 149.478 155.47 100.213C155.47 50.9478 194.809 11.0106 244.1 11.0106C293.391 11.0106 332.731 50.9478 332.731 100.213Z" fill="#FFA832"/>
<path d="M243.737 181.58C243.298 181.587 242.858 181.593 242.417 181.593C241.98 181.593 241.544 181.588 241.108 181.581C241.543 181.587 241.978 181.591 242.415 181.591C242.857 181.591 243.298 181.586 243.737 181.58ZM242.671 30.0735C244.533 30.0735 246.163 30.7727 247.56 32.1711C248.958 33.5677 249.657 35.1968 249.657 37.0588V42.47C254.195 42.811 258.484 44.2635 262.524 46.8284C266.566 49.3932 269.951 52.6047 272.68 56.4622C273.781 58.0482 273.966 59.7933 273.232 61.6965C272.499 63.5979 271.132 64.9429 269.132 65.7307C267.667 66.3855 266.114 66.4106 264.474 65.8069C262.835 65.2049 261.392 64.1423 260.146 62.6194C258.178 60.2457 255.767 58.347 252.914 56.9231C250.061 55.5008 246.732 54.7893 242.927 54.7893C236.564 54.7893 231.576 56.2979 227.962 59.3147C224.348 62.3315 222.541 66.2543 222.541 71.0823C222.541 75.9099 224.306 79.6683 227.834 82.3577C231.362 85.0471 238.506 88.2292 249.264 91.9026C261.542 96.3365 269.793 101.307 274.018 106.816C278.242 112.326 280.355 118.663 280.355 125.825C280.354 135.756 277.137 143.164 270.703 148.05C264.269 152.938 257.082 155.919 249.146 156.995V162.406C249.146 164.268 248.446 165.897 247.048 167.294C245.651 168.693 244.022 169.392 242.159 169.392C240.297 169.392 238.667 168.693 237.271 167.294C235.872 165.898 235.173 164.268 235.173 162.406V156.484C228.824 155.119 223.348 152.718 218.743 149.281C214.139 145.844 210.406 141.259 207.546 135.526C206.721 133.834 206.729 132.06 207.569 130.204C208.412 128.349 209.74 127.089 211.555 126.426C213.238 125.763 214.959 125.743 216.717 126.367C218.475 126.99 219.872 128.2 220.907 129.997C223.557 134.588 226.845 138.097 230.771 140.524C234.696 142.95 239.09 144.164 243.95 144.164C249.774 144.164 255.002 142.711 259.634 139.805C264.264 136.901 266.579 132.241 266.579 125.825C266.579 120.486 264.589 116.233 260.608 113.066C256.626 109.897 249.198 106.318 238.322 102.329C227.802 98.5519 220.213 94.321 215.556 89.6379C210.898 84.955 208.569 78.77 208.569 71.0823C208.569 64.4842 210.908 58.4854 215.586 53.0862C220.262 47.6887 226.962 44.1498 235.685 42.47V37.0588C235.685 35.1969 236.384 33.5677 237.782 32.1711C239.179 30.7728 240.809 30.0735 242.671 30.0735ZM324.251 97.6194C324.269 98.3216 324.277 99.0262 324.277 99.7327C324.277 100.362 324.269 100.99 324.255 101.615C324.267 100.991 324.274 100.363 324.274 99.7327C324.274 99.3757 324.272 99.0195 324.269 98.6643L324.251 97.6194ZM243.471 17.8782C243.12 17.8744 242.768 17.8733 242.415 17.8733C242.069 17.8733 241.724 17.8745 241.38 17.8782C241.725 17.8739 242.071 17.8723 242.417 17.8723C242.769 17.8723 243.12 17.8738 243.471 17.8782Z" fill="white"/>
<path d="M243.2 1.86169C256.645 1.8617 269.283 4.41262 281.113 9.51501C292.943 14.6175 303.234 21.5426 311.984 30.2894C320.735 39.0364 327.663 49.3226 332.769 61.1478C337.874 72.973 340.426 85.6076 340.426 99.0511C340.426 112.496 337.874 125.134 332.771 136.964C327.669 148.795 320.744 159.085 311.997 167.835C303.25 176.586 292.965 183.515 281.14 188.62C269.314 193.725 256.68 196.277 243.236 196.277C229.791 196.277 217.152 193.725 205.322 188.622C193.492 183.52 183.201 176.596 174.451 167.849C165.701 159.102 158.773 148.816 153.667 136.991C148.563 125.165 146.011 112.531 146.011 99.0873C146.011 85.642 148.561 73.0035 153.664 61.1732C158.766 49.343 165.691 39.0525 174.438 30.3021C183.185 21.5518 193.472 14.6239 205.297 9.51794C217.122 4.4137 229.756 1.86169 243.2 1.86169ZM325.076 99.0687H325.077C325.077 76.2167 317.147 56.8604 301.287 41.0004C285.427 25.1402 266.07 17.2103 243.218 17.2103L244.273 17.2152C243.923 17.2108 243.571 17.2094 243.22 17.2094C242.873 17.2094 242.528 17.211 242.182 17.2152C242.527 17.2116 242.872 17.2103 243.218 17.2103C220.366 17.2104 201.009 25.1403 185.149 41.0004C169.289 56.8604 161.359 76.2166 161.359 99.0687C161.359 121.921 169.289 141.278 185.149 157.138C200.88 172.869 220.05 180.796 242.659 180.924C242.846 180.926 243.033 180.93 243.22 180.93C243.378 180.93 243.536 180.926 243.694 180.925C266.339 180.816 285.537 172.888 301.287 157.138C316.71 141.715 324.632 122.987 325.057 100.953C325.071 100.327 325.08 99.6989 325.08 99.0697C325.08 98.3633 325.071 97.6585 325.054 96.9564L325.071 98.0013C325.075 98.3563 325.076 98.7121 325.076 99.0687ZM243.984 168.655H243.985H243.984ZM240.966 168.434L240.965 168.433L240.966 168.434ZM246.181 167.909L246.182 167.91L246.181 167.909ZM239.451 167.737C239.61 167.836 239.773 167.927 239.937 168.011C239.873 167.978 239.807 167.945 239.743 167.91L239.451 167.737ZM249.284 164.663L249.285 164.664L249.284 164.663ZM236.562 164.496C236.604 164.587 236.647 164.677 236.692 164.766C236.647 164.677 236.604 164.587 236.562 164.496ZM218.692 147.959C218.893 148.119 219.097 148.276 219.302 148.431C219.24 148.384 219.177 148.339 219.116 148.291L218.692 147.959ZM217.859 147.275H217.86H217.859ZM243.847 143.487C244.147 143.496 244.449 143.5 244.753 143.5L245.297 143.496C245.116 143.499 244.935 143.501 244.753 143.501L243.847 143.487ZM250.038 143.075C249.356 143.188 248.666 143.28 247.966 143.348C248.666 143.28 249.356 143.188 250.038 143.075ZM231.573 139.861C231.941 140.088 232.313 140.305 232.689 140.511C232.438 140.374 232.189 140.231 231.942 140.084L231.573 139.861ZM230.131 138.9H230.132H230.131ZM208.372 129.541C208.319 129.657 208.27 129.773 208.224 129.888C208.132 130.119 208.053 130.348 207.987 130.577C208.086 130.234 208.214 129.889 208.372 129.541ZM221.512 129.003V129.004V129.003ZM212.022 125.894C211.803 125.986 211.592 126.088 211.388 126.199C211.592 126.088 211.803 125.986 212.022 125.894ZM217.519 125.704V125.703V125.704ZM212.357 125.763C212.568 125.68 212.779 125.607 212.99 125.544C212.779 125.607 212.568 125.68 212.357 125.763ZM279.368 114.446H279.369H279.368ZM276.974 109.339C277.081 109.521 277.187 109.704 277.29 109.887L277.593 110.44C277.395 110.07 277.188 109.703 276.974 109.339ZM274.412 105.637C274.552 105.808 274.688 105.98 274.82 106.153C274.952 106.325 275.082 106.498 275.21 106.671C275.082 106.498 274.952 106.325 274.82 106.153C274.688 105.98 274.552 105.808 274.412 105.637ZM271.47 102.615C271.939 103.028 272.383 103.446 272.803 103.867C272.383 103.446 271.939 103.028 271.47 102.615ZM267.678 99.7054C268.146 100.022 268.599 100.341 269.036 100.662C268.599 100.341 268.146 100.022 267.678 99.7054ZM264.679 97.8285C264.944 97.9827 265.206 98.1371 265.464 98.2924L266.225 98.7601C265.726 98.4474 265.21 98.137 264.679 97.8285ZM256.548 93.7894V93.7904V93.7894ZM238.022 86.7006C241.345 88.1193 245.36 89.6316 250.066 91.2386V91.2396C248.721 90.7804 247.433 90.329 246.201 89.8851C245.585 89.6633 244.984 89.443 244.396 89.225C242.046 88.3527 239.921 87.5114 238.022 86.7006ZM217.266 89.848V89.847V89.848ZM214.721 87.1488V87.1478V87.1488ZM212.674 84.1439C212.073 83.09 211.556 81.9831 211.119 80.8236C211.556 81.9831 212.073 83.09 212.674 84.1439ZM231.471 83.5297H231.472H231.471ZM229.912 82.5853C230.036 82.6656 230.162 82.7465 230.292 82.8275C230.162 82.7465 230.036 82.6656 229.912 82.5853ZM225.412 78.2181C225.481 78.3273 225.552 78.4353 225.624 78.5424H225.623C225.551 78.4353 225.48 78.3272 225.411 78.2181H225.412ZM223.473 72.6039C223.507 72.8845 223.549 73.1607 223.598 73.433C223.549 73.1607 223.507 72.8845 223.473 72.6039ZM223.391 69.0844C223.36 69.521 223.345 69.9657 223.345 70.4183C223.345 70.72 223.351 71.0176 223.365 71.3109L223.364 71.3119C223.357 71.1652 223.352 71.0174 223.349 70.8685C223.345 70.7198 223.344 70.5701 223.344 70.4193C223.344 69.9668 223.36 69.5219 223.391 69.0853V69.0844ZM223.873 66.1576C223.696 66.8236 223.565 67.5118 223.476 68.222L223.429 68.6508C223.513 67.7879 223.661 66.9568 223.873 66.1576ZM224.238 64.9828H224.239H224.238ZM271.918 63.9457C271.794 64.0432 271.666 64.1357 271.534 64.226C271.564 64.2055 271.594 64.1862 271.624 64.1654L271.918 63.9457ZM225.462 62.4271C225.321 62.6583 225.187 62.893 225.059 63.1312H225.058C225.186 62.893 225.32 62.6582 225.461 62.4271H225.462ZM262.175 63.2494V63.2484V63.2494ZM211.846 59.3002C211.759 59.4842 211.674 59.6687 211.592 59.8539C211.674 59.6684 211.759 59.4835 211.846 59.2992V59.3002ZM212.688 57.6605C212.588 57.841 212.489 58.0219 212.393 58.2035C212.49 58.0216 212.588 57.8402 212.688 57.6595V57.6605ZM229.458 58.1029H229.459H229.458ZM274.005 56.7074C274.194 57.1191 274.326 57.5405 274.401 57.972C274.326 57.5405 274.194 57.119 274.005 56.7074ZM231.333 56.8881H231.334H231.333ZM272.963 55.0834C273.138 55.3195 273.312 55.558 273.482 55.7992C273.551 55.8983 273.617 55.9977 273.679 56.098C273.617 55.9977 273.551 55.8983 273.482 55.7992C273.312 55.5581 273.138 55.3194 272.963 55.0834ZM217.289 51.433C216.981 51.7557 216.681 52.086 216.389 52.4232C215.804 53.0981 215.256 53.7823 214.744 54.476L214.367 54.9974C214.984 54.1244 215.658 53.266 216.389 52.4222C216.681 52.0851 216.981 51.7556 217.289 51.433ZM243.138 54.1302H243.137H243.138ZM267.597 49.3236H267.598H267.597ZM223.09 46.765C222.694 47.0081 222.307 47.2583 221.928 47.516C221.738 47.6447 221.551 47.7753 221.365 47.9076C220.733 48.3582 220.125 48.8309 219.539 49.3236C220.642 48.3966 221.825 47.5431 223.09 46.765ZM264.811 47.1576H264.812H264.811ZM250.386 35.3724C250.402 35.4835 250.417 35.5954 250.428 35.7084L250.452 36.0492C250.441 35.8199 250.418 35.5944 250.386 35.3724ZM244.827 29.5414C246.136 29.8036 247.315 30.4585 248.362 31.5072C248.537 31.6819 248.701 31.8604 248.854 32.0424L249.075 32.3177C248.862 32.0396 248.624 31.77 248.362 31.5082C248.1 31.246 247.83 31.0083 247.552 30.7953C247.273 30.5822 246.987 30.3938 246.692 30.2299C246.496 30.1207 246.296 30.0223 246.093 29.9349C245.991 29.8912 245.888 29.8502 245.784 29.8119C245.473 29.6972 245.154 29.6069 244.827 29.5414ZM238.585 31.5082C238.441 31.6519 238.306 31.799 238.177 31.9476C238.306 31.7988 238.441 31.6511 238.585 31.5072C238.672 31.4199 238.76 31.3352 238.849 31.2533L238.585 31.5082ZM240.449 30.1263C240.03 30.3414 239.628 30.6054 239.242 30.9174C239.628 30.6054 240.03 30.3414 240.449 30.1263ZM242.12 29.5414C241.684 29.6288 241.262 29.7601 240.854 29.9349C241.262 29.7601 241.684 29.6288 242.12 29.5414ZM243.82 29.4183C243.706 29.4129 243.59 29.4105 243.474 29.4105C243.36 29.4105 243.247 29.4121 243.135 29.4174C243.247 29.4121 243.36 29.4096 243.474 29.4095L243.82 29.4183Z" fill="#FFD43F"/>
</g>
<path d="M103.355 530.132C96.1963 522.809 92.6169 513.975 92.6169 503.63C92.6169 493.286 96.2369 484.494 103.477 477.256C110.721 470.017 119.52 466.398 129.875 466.398C140.226 466.398 149.023 470.058 156.267 477.378C163.507 484.701 167.128 493.535 167.128 503.88C167.128 514.224 163.465 523.016 156.14 530.254C148.818 537.492 139.98 541.112 129.625 541.112C119.271 541.112 110.514 537.452 103.355 530.132ZM328.63 530.132C321.472 522.809 317.892 513.975 317.892 503.63C317.892 493.286 321.514 484.494 328.758 477.256C335.998 470.017 344.796 466.398 355.15 466.398C365.505 466.398 374.303 470.058 381.543 477.378C388.783 484.701 392.403 493.535 392.403 503.88C392.403 514.224 388.742 523.016 381.421 530.254C374.095 537.492 365.255 541.112 354.901 541.112C344.55 541.112 335.793 537.452 328.63 530.132ZM95.743 165.296L160.556 300.427H322.314C323.658 300.427 324.888 300.092 326.004 299.422C327.123 298.752 327.98 297.822 328.572 296.633L397.412 171.553C398.303 169.915 398.376 168.463 397.632 167.196C396.889 165.93 395.622 165.296 393.832 165.296H95.743ZM82.3377 138.934H243.53H404.722C414.216 138.934 421.398 143.037 426.268 151.244C431.133 159.45 431.242 167.769 426.593 176.201L355.162 305.585C351.292 312.01 346.33 317.152 340.275 321.009C334.216 324.866 327.679 326.795 320.664 326.795H148.801L116.708 386.091C115.666 387.88 115.666 389.818 116.708 391.906C117.75 393.989 119.389 395.031 121.624 395.031H379.218C382.96 395.031 386.094 396.303 388.62 398.848C391.142 401.388 392.403 404.545 392.403 408.317C392.403 412.093 391.142 415.216 388.62 417.687C386.094 420.158 382.96 421.394 379.218 421.394H125.511C110.88 421.394 100.318 416.345 93.8255 406.249C87.3291 396.148 87.3872 384.991 93.9998 372.776L131.415 304.673L43.5396 119.176H13.1903C9.44434 119.176 6.31043 117.906 3.78858 115.366C1.26286 112.821 0 109.663 0 105.891C0 102.118 1.26286 98.9969 3.78858 96.526C6.31043 94.0512 9.44434 92.8138 13.1903 92.8138H50.0186C53.5244 92.8138 56.5944 93.6388 59.2285 95.2886C61.8589 96.9385 63.8694 99.2563 65.2601 102.242L82.3377 138.934Z" fill="white"/>
</svg>
