<svg width="540" height="540" viewBox="0 0 540 540" fill="none" xmlns="http://www.w3.org/2000/svg">
<mask id="mask0_1_12" style="mask-type:alpha" maskUnits="userSpaceOnUse" x="172" y="0" width="215" height="145">
<path d="M387 0H172V145H387V0Z" fill="#D9D9D9"/>
</mask>
<g mask="url(#mask0_1_12)">
<path d="M375.72 98.3513C375.72 147.616 336.38 187.553 287.089 187.553C237.798 187.553 198.459 147.616 198.459 98.3513C198.459 49.0861 237.798 9.14891 287.089 9.14891C336.38 9.14891 375.72 49.0861 375.72 98.3513Z" fill="#FFA832"/>
<path d="M286.726 179.718C286.287 179.725 285.847 179.731 285.406 179.731C284.969 179.731 284.533 179.726 284.097 179.719C284.532 179.725 284.967 179.729 285.404 179.729C285.846 179.729 286.287 179.724 286.726 179.718ZM285.66 28.2118C287.522 28.2118 289.152 28.911 290.549 30.3094C291.947 31.706 292.646 33.3351 292.646 35.1971V40.6083C297.184 40.9493 301.473 42.4018 305.513 44.9667C309.555 47.5315 312.94 50.743 315.669 54.6005C316.77 56.1865 316.955 57.9316 316.221 59.8348C315.488 61.7362 314.121 63.0812 312.121 63.869C310.656 64.5238 309.103 64.5489 307.463 63.9452C305.824 63.3432 304.381 62.2806 303.135 60.7577C301.167 58.384 298.756 56.4853 295.903 55.0614C293.05 53.6391 289.721 52.9276 285.916 52.9276C279.553 52.9276 274.565 54.4362 270.951 57.453C267.337 60.4698 265.53 64.3926 265.53 69.2206C265.53 74.0482 267.295 77.8066 270.823 80.496C274.351 83.1854 281.495 86.3675 292.253 90.0409C304.531 94.4748 312.782 99.4453 317.007 104.954C321.231 110.464 323.344 116.801 323.344 123.963C323.343 133.894 320.126 141.302 313.692 146.188C307.258 151.076 300.071 154.057 292.135 155.133V160.544C292.135 162.406 291.435 164.035 290.037 165.432C288.64 166.831 287.011 167.53 285.148 167.53C283.286 167.53 281.656 166.831 280.26 165.432C278.861 164.036 278.162 162.406 278.162 160.544V154.622C271.813 153.257 266.337 150.856 261.732 147.419C257.128 143.982 253.395 139.397 250.535 133.664C249.71 131.972 249.718 130.198 250.558 128.342C251.401 126.487 252.729 125.227 254.544 124.564C256.227 123.901 257.948 123.881 259.706 124.505C261.464 125.128 262.861 126.338 263.896 128.135C266.546 132.726 269.834 136.235 273.76 138.662C277.685 141.088 282.079 142.302 286.939 142.302C292.763 142.302 297.991 140.849 302.623 137.943C307.253 135.039 309.568 130.379 309.568 123.963C309.568 118.624 307.578 114.371 303.597 111.204C299.615 108.035 292.187 104.456 281.311 100.467C270.791 96.6902 263.202 92.4593 258.545 87.7762C253.887 83.0933 251.558 76.9083 251.558 69.2206C251.558 62.6225 253.897 56.6237 258.575 51.2245C263.251 45.827 269.951 42.2881 278.674 40.6083V35.1971C278.674 33.3352 279.373 31.706 280.771 30.3094C282.168 28.9111 283.798 28.2118 285.66 28.2118ZM367.24 95.7577C367.258 96.4599 367.266 97.1645 367.266 97.871C367.266 98.5003 367.258 99.1283 367.244 99.7533C367.256 99.1293 367.263 98.5013 367.263 97.871C367.263 97.514 367.261 97.1578 367.258 96.8026L367.24 95.7577ZM286.46 16.0165C286.109 16.0127 285.757 16.0116 285.404 16.0116C285.058 16.0116 284.713 16.0128 284.369 16.0165C284.714 16.0122 285.06 16.0106 285.406 16.0106C285.758 16.0106 286.109 16.0121 286.46 16.0165Z" fill="white"/>
<path d="M286.189 0C299.634 1e-05 312.272 2.55093 324.102 7.65332C335.932 12.7558 346.223 19.6809 354.973 28.4277C363.724 37.1747 370.652 47.4609 375.758 59.2861C380.863 71.1113 383.415 83.7459 383.415 97.1894C383.415 110.634 380.863 123.272 375.76 135.102C370.658 146.933 363.733 157.223 354.986 165.973C346.239 174.724 335.954 181.653 324.129 186.758C312.303 191.863 299.669 194.415 286.225 194.415C272.78 194.415 260.141 191.863 248.311 186.76C236.481 181.658 226.19 174.734 217.44 165.987C208.69 157.24 201.762 146.954 196.656 135.129C191.552 123.303 189 110.669 189 97.2256C189 83.7803 191.55 71.1418 196.653 59.3115C201.755 47.4813 208.68 37.1908 217.427 28.4404C226.174 19.6901 236.461 12.7622 248.286 7.65625C260.111 2.55201 272.745 0 286.189 0ZM368.065 97.207H368.066C368.066 74.355 360.136 54.9987 344.276 39.1387C328.416 23.2785 309.059 15.3486 286.207 15.3486L287.262 15.3535C286.912 15.3491 286.56 15.3477 286.209 15.3477C285.862 15.3477 285.517 15.3493 285.171 15.3535C285.516 15.3499 285.861 15.3486 286.207 15.3486C263.355 15.3487 243.998 23.2786 228.138 39.1387C212.278 54.9987 204.348 74.3549 204.348 97.207C204.348 120.059 212.278 139.416 228.138 155.276C243.869 171.007 263.039 178.934 285.648 179.062C285.835 179.064 286.022 179.068 286.209 179.068C286.367 179.068 286.525 179.064 286.683 179.063C309.328 178.954 328.526 171.026 344.276 155.276C359.699 139.853 367.621 121.125 368.046 99.0913C368.06 98.4653 368.069 97.8372 368.069 97.208C368.069 96.5016 368.06 95.7968 368.043 95.0947L368.06 96.1396C368.064 96.4946 368.065 96.8504 368.065 97.207ZM282.44 165.875C282.599 165.974 282.762 166.065 282.926 166.149C282.862 166.116 282.796 166.083 282.732 166.048L282.44 165.875ZM261.681 146.097C261.882 146.257 262.086 146.414 262.291 146.569C262.229 146.522 262.166 146.477 262.105 146.429L261.681 146.097ZM286.836 141.625C287.136 141.634 287.438 141.638 287.742 141.638L288.286 141.634C288.105 141.637 287.924 141.639 287.742 141.639L286.836 141.625ZM274.562 137.999C274.93 138.226 275.302 138.443 275.678 138.649C275.427 138.512 275.178 138.369 274.931 138.222L274.562 137.999ZM251.361 127.679C251.308 127.795 251.259 127.911 251.213 128.026C251.121 128.257 251.042 128.486 250.976 128.715C251.075 128.372 251.203 128.027 251.361 127.679ZM319.963 107.477C320.07 107.659 320.176 107.842 320.279 108.025L320.582 108.578C320.384 108.208 320.177 107.841 319.963 107.477ZM307.668 95.9668C307.933 96.121 308.195 96.2754 308.453 96.4307L309.214 96.8984C308.715 96.5857 308.199 96.2753 307.668 95.9668ZM281.011 84.8389C284.334 86.2576 288.349 87.7699 293.055 89.3769C291.71 88.9177 290.422 88.4673 289.19 88.0234C288.574 87.8016 287.973 87.5813 287.385 87.3633C285.035 86.491 282.91 85.6497 281.011 84.8389ZM268.401 76.3564C268.47 76.4656 268.541 76.5736 268.613 76.6807C268.541 76.5736 268.469 76.4655 268.4 76.3564H268.401ZM266.38 67.2227C266.349 67.6593 266.334 68.104 266.334 68.5566C266.334 68.8583 266.34 69.1559 266.354 69.4492L266.353 69.4502C266.346 69.3035 266.341 69.1557 266.338 69.0068C266.334 68.8581 266.333 68.7084 266.333 68.5576C266.333 68.1051 266.349 67.6593 266.38 67.2227ZM266.862 64.2959C266.685 64.9619 266.554 65.6501 266.465 66.3603L266.418 66.7891C266.502 65.9262 266.65 65.0951 266.862 64.2959ZM314.907 62.084C314.783 62.1815 314.655 62.274 314.523 62.3643C314.553 62.3438 314.583 62.3245 314.613 62.3037L314.907 62.084ZM268.451 60.5654C268.31 60.7966 268.176 61.0313 268.048 61.2695H268.047C268.175 61.0313 268.309 60.7965 268.45 60.5654H268.451ZM254.835 57.4385C254.748 57.6225 254.663 57.807 254.581 57.9922C254.663 57.8067 254.748 57.6218 254.835 57.4375V57.4385ZM255.677 55.7988C255.577 55.9793 255.478 56.1602 255.382 56.3418C255.479 56.1599 255.577 55.9795 255.677 55.7988ZM259.378 50.5615C258.793 51.2364 258.245 51.9206 257.733 52.6143L257.356 53.1357C257.973 52.2627 258.647 51.4053 259.378 50.5615ZM266.079 44.9033C265.683 45.1464 265.296 45.3966 264.917 45.6543C264.727 45.783 264.54 45.9136 264.354 46.0459C263.722 46.4965 263.114 46.9692 262.528 47.4619C263.631 46.5349 264.814 45.6814 266.079 44.9033ZM293.375 33.5107C293.391 33.6218 293.406 33.7337 293.417 33.8467L293.441 34.1875C293.43 33.9582 293.407 33.7327 293.375 33.5107ZM287.816 27.6797C289.125 27.9419 290.304 28.5968 291.351 29.6455C291.526 29.8202 291.69 29.9987 291.843 30.1807L292.064 30.456C291.851 30.1779 291.613 29.9073 291.351 29.6455C291.089 29.3833 290.819 29.1466 290.541 28.9336C290.262 28.7205 289.976 28.5321 289.681 28.3682C289.485 28.259 289.285 28.1606 289.082 28.0732C288.98 28.0295 288.877 27.9885 288.773 27.9502C288.462 27.8355 288.143 27.7452 287.816 27.6797ZM281.574 29.6465C281.661 29.5592 281.749 29.4735 281.838 29.3916L281.574 29.6465ZM286.809 27.5566C286.695 27.5512 286.579 27.5488 286.463 27.5488L286.809 27.5566Z" fill="#FFD43F"/>
</g>
<path d="M146.355 529.027C139.196 521.709 135.617 512.881 135.617 502.543C135.617 492.206 139.237 483.42 146.477 476.186C153.721 468.952 162.52 465.336 172.875 465.336C183.226 465.336 192.023 468.993 199.267 476.308C206.507 483.627 210.128 492.455 210.128 502.793C210.128 513.13 206.465 521.916 199.14 529.149C191.818 536.382 182.98 540 172.625 540C162.271 540 153.514 536.342 146.355 529.027ZM371.63 529.027C364.472 521.709 360.892 512.881 360.892 502.543C360.892 492.206 364.514 483.42 371.758 476.186C378.998 468.952 387.796 465.336 398.15 465.336C408.505 465.336 417.303 468.993 424.543 476.308C431.783 483.627 435.403 492.455 435.403 502.793C435.403 513.13 431.742 521.916 424.421 529.149C417.095 536.382 408.255 540 397.901 540C387.55 540 378.793 536.342 371.63 529.027ZM138.743 164.434L203.556 299.475H365.314C366.658 299.475 367.888 299.14 369.004 298.471C370.123 297.801 370.98 296.872 371.572 295.684L440.412 170.687C441.303 169.05 441.376 167.599 440.632 166.333C439.889 165.068 438.622 164.434 436.832 164.434H138.743ZM125.338 138.09H286.53H447.722C457.216 138.09 464.398 142.19 469.268 150.391C474.133 158.592 474.242 166.905 469.593 175.332L398.162 304.63C394.292 311.05 389.33 316.189 383.275 320.043C377.216 323.898 370.679 325.826 363.664 325.826H191.801L159.708 385.082C158.666 386.87 158.666 388.807 159.708 390.893C160.75 392.975 162.389 394.016 164.624 394.016H422.218C425.96 394.016 429.094 395.287 431.62 397.831C434.142 400.369 435.403 403.524 435.403 407.293C435.403 411.067 434.142 414.188 431.62 416.657C429.094 419.126 425.96 420.362 422.218 420.362H168.511C153.88 420.362 143.318 415.316 136.825 405.227C130.329 395.132 130.387 383.983 137 371.776L174.415 303.718L86.5396 118.345H56.1903C52.4443 118.345 49.3104 117.076 46.7886 114.537C44.2629 111.994 43 108.838 43 105.069C43 101.298 44.2629 98.179 46.7886 95.7097C49.3104 93.2366 52.4443 92 56.1903 92H93.0186C96.5244 92 99.5944 92.8245 102.228 94.4732C104.859 96.122 106.869 98.4382 108.26 101.422L125.338 138.09Z" fill="white"/>
</svg>
